<svg version="1.1" id="Layer_1" xmlns="http://www.w3.org/2000/svg" xmlns:xlink="http://www.w3.org/1999/xlink" x="0px" y="0px"
	 width="100%" viewBox="0 0 512 512" enable-background="new 0 0 512 512" xml:space="preserve">
<path fill="#000000" opacity="1.000000" stroke="none" 
	d="
M289.000000,513.000000 
	C192.690048,513.000000 96.880096,513.000000 1.035069,513.000000 
	C1.035069,342.398346 1.035069,171.796707 1.035069,1.097524 
	C171.559967,1.097524 342.120026,1.097524 512.840027,1.097524 
	C512.840027,171.666550 512.840027,342.333252 512.840027,513.000000 
	C438.463348,513.000000 363.981659,513.000000 289.000000,513.000000 
M291.002899,328.611938 
	C322.243011,359.814728 353.468750,391.031952 384.751343,422.192047 
	C387.173584,424.604797 388.325592,426.805267 387.462463,430.517181 
	C385.890381,437.278137 388.275726,443.319916 392.911072,448.318665 
	C396.987152,452.714355 401.247345,456.953949 405.615692,461.060944 
	C414.577911,469.486969 426.226288,469.231750 434.955109,460.537903 
	C443.810089,451.718414 452.676544,442.909637 461.454926,434.014191 
	C467.851166,427.532623 469.573090,416.848358 463.957062,409.835968 
	C458.094849,402.516174 451.194092,395.827240 443.850891,389.990326 
	C440.783386,387.552094 435.252625,386.918854 431.114716,387.479340 
	C426.839569,388.058441 424.311707,387.062622 421.511353,384.251343 
	C391.287933,353.910065 360.978973,323.654022 330.711884,293.356201 
	C329.357239,292.000214 328.179626,290.467407 326.219727,288.211426 
	C330.297607,284.507507 333.853973,280.977509 337.762848,277.894409 
	C339.077148,276.857727 341.396667,276.346619 343.069397,276.645081 
	C349.703705,277.828918 355.767548,276.709320 360.861542,272.380066 
	C364.910522,268.938965 369.099823,265.346771 372.042236,261.016724 
	C374.542694,257.337036 376.729401,252.472229 376.619263,248.194504 
	C376.395630,239.508957 372.072144,232.406357 363.194977,229.782547 
	C355.817291,227.601974 348.712921,228.619003 342.969574,234.519196 
	C339.947784,237.623489 336.794708,240.600830 333.798615,243.729050 
	C329.003998,248.735031 327.002075,254.598404 328.738495,261.482086 
	C329.597168,264.886047 329.259674,267.754242 324.523132,269.672577 
	C316.938812,261.906128 309.220642,253.645645 301.082855,245.821564 
	C297.078003,241.971069 294.102936,237.852676 293.658478,232.292877 
	C293.298767,227.792953 291.080658,225.389420 286.617523,225.093475 
	C281.872467,224.778793 279.284058,222.177261 279.159668,217.550507 
	C279.039490,213.078568 276.495575,211.381912 272.609406,210.960770 
	C267.944092,210.455185 265.257233,208.267746 264.988312,203.300110 
	C264.770996,199.285767 262.676178,197.058792 258.341248,196.810776 
	C254.421463,196.586517 251.337280,194.725769 251.069656,190.285172 
	C250.755325,185.069519 247.803238,182.688889 242.927856,182.137070 
	C239.023590,181.695145 237.071152,179.637070 236.912689,175.590515 
	C236.732773,170.996521 234.201477,168.266647 229.511688,168.104401 
	C225.077362,167.950989 222.995102,165.991287 222.614334,161.445236 
	C222.321182,157.945206 221.070969,154.251007 216.602554,154.190567 
	C210.871521,154.113037 208.350342,151.283508 207.942322,145.832031 
	C207.687332,142.425186 205.560196,140.792313 202.260193,139.966080 
	C197.631042,138.807068 192.724762,137.879349 188.637497,135.597855 
	C176.931610,129.063644 165.346298,122.251801 154.134491,114.906654 
	C129.208878,98.577225 104.455437,81.980240 79.816154,65.221313 
	C72.166565,60.018288 65.260056,53.733734 57.728199,48.342705 
	C52.938335,44.914288 47.466446,47.870537 47.071922,53.734978 
	C46.939053,55.710049 46.769753,57.862118 47.379734,59.676964 
	C50.173031,67.987694 52.584339,76.517784 56.331978,84.398865 
	C65.696686,104.092346 77.512123,122.375931 91.549858,139.043213 
	C109.050438,159.821976 126.239670,180.977600 145.141068,200.438110 
	C184.725693,241.193665 225.344452,280.944733 265.531616,321.115234 
	C266.908234,322.491272 268.210663,323.941498 270.462433,326.325714 
	C265.834869,330.522125 261.389160,334.292145 257.263977,338.385223 
	C254.448257,341.179077 253.983398,344.791534 256.731415,347.818146 
	C259.402161,350.759644 262.970184,350.686371 266.324310,348.727966 
	C267.589508,347.989227 268.631775,346.834564 269.692291,345.785248 
	C275.140930,340.394073 280.487640,334.896240 286.060669,329.637787 
	C287.092194,328.664490 288.998779,328.618591 291.002899,328.611938 
z"/>
<path fill="#414042" opacity="1.000000" stroke="none" 
	d="
M290.752197,328.378296 
	C288.998779,328.618591 287.092194,328.664490 286.060669,329.637787 
	C280.487640,334.896240 275.140930,340.394073 269.692291,345.785248 
	C268.631775,346.834564 267.589508,347.989227 266.324310,348.727966 
	C262.970184,350.686371 259.402161,350.759644 256.731415,347.818146 
	C253.983398,344.791534 254.448257,341.179077 257.263977,338.385223 
	C261.389160,334.292145 265.834869,330.522125 270.462433,326.325714 
	C268.210663,323.941498 266.908234,322.491272 265.531616,321.115234 
	C225.344452,280.944733 184.725693,241.193665 145.141068,200.438110 
	C126.239670,180.977600 109.050438,159.821976 91.549858,139.043213 
	C77.512123,122.375931 65.696686,104.092346 56.331978,84.398865 
	C52.584339,76.517784 50.173031,67.987694 47.379734,59.676964 
	C46.769753,57.862118 46.939053,55.710049 47.071922,53.734978 
	C47.466446,47.870537 52.938335,44.914288 57.728199,48.342705 
	C65.260056,53.733734 72.166565,60.018288 79.816154,65.221313 
	C104.455437,81.980240 129.208878,98.577225 154.134491,114.906654 
	C165.346298,122.251801 176.931610,129.063644 188.637497,135.597855 
	C192.724762,137.879349 197.631042,138.807068 202.260193,139.966080 
	C205.560196,140.792313 207.687332,142.425186 207.942322,145.832031 
	C208.350342,151.283508 210.871521,154.113037 216.602554,154.190567 
	C221.070969,154.251007 222.321182,157.945206 222.614334,161.445236 
	C222.995102,165.991287 225.077362,167.950989 229.511688,168.104401 
	C234.201477,168.266647 236.732773,170.996521 236.912689,175.590515 
	C237.071152,179.637070 239.023590,181.695145 242.927856,182.137070 
	C247.803238,182.688889 250.755325,185.069519 251.069656,190.285172 
	C251.337280,194.725769 254.421463,196.586517 258.341248,196.810776 
	C262.676178,197.058792 264.770996,199.285767 264.988312,203.300110 
	C265.257233,208.267746 267.944092,210.455185 272.609406,210.960770 
	C276.495575,211.381912 279.039490,213.078568 279.159668,217.550507 
	C279.284058,222.177261 281.872467,224.778793 286.617523,225.093475 
	C291.080658,225.389420 293.298767,227.792953 293.658478,232.292877 
	C294.102936,237.852676 297.078003,241.971069 301.082855,245.821564 
	C309.220642,253.645645 316.938812,261.906128 324.523132,269.672577 
	C329.259674,267.754242 329.597168,264.886047 328.738495,261.482086 
	C327.002075,254.598404 329.003998,248.735031 333.798615,243.729050 
	C336.794708,240.600830 339.947784,237.623489 342.969574,234.519196 
	C348.712921,228.619003 355.817291,227.601974 363.194977,229.782547 
	C372.072144,232.406357 376.395630,239.508957 376.619263,248.194504 
	C376.729401,252.472229 374.542694,257.337036 372.042236,261.016724 
	C369.099823,265.346771 364.910522,268.938965 360.861542,272.380066 
	C355.767548,276.709320 349.703705,277.828918 343.069397,276.645081 
	C341.396667,276.346619 339.077148,276.857727 337.762848,277.894409 
	C333.853973,280.977509 330.297607,284.507507 326.219727,288.211426 
	C328.179626,290.467407 329.357239,292.000214 330.711884,293.356201 
	C360.978973,323.654022 391.287933,353.910065 421.511353,384.251343 
	C424.311707,387.062622 426.839569,388.058441 431.114716,387.479340 
	C435.252625,386.918854 440.783386,387.552094 443.850891,389.990326 
	C451.194092,395.827240 458.094849,402.516174 463.957062,409.835968 
	C469.573090,416.848358 467.851166,427.532623 461.454926,434.014191 
	C452.676544,442.909637 443.810089,451.718414 434.955109,460.537903 
	C426.226288,469.231750 414.577911,469.486969 405.615692,461.060944 
	C401.247345,456.953949 396.987152,452.714355 392.911072,448.318665 
	C388.275726,443.319916 385.890381,437.278137 387.462463,430.517181 
	C388.325592,426.805267 387.173584,424.604797 384.751343,422.192047 
	C353.468750,391.031952 322.243011,359.814728 290.752197,328.378296 
M210.806717,171.875900 
	C210.191269,167.898209 208.130417,165.957962 203.860641,165.627335 
	C201.743774,165.463425 198.119019,163.577911 198.004715,162.231232 
	C197.327255,154.249786 191.494278,152.994507 185.697342,149.630127 
	C158.165161,133.651062 131.179184,116.711235 104.281837,99.666733 
	C92.016731,91.894508 80.405670,83.090164 67.355659,73.954262 
	C68.449394,76.915085 68.917747,78.794937 69.793877,80.460274 
	C78.844727,97.664124 89.012177,114.176758 101.596497,129.036469 
	C117.980217,148.382553 133.733856,168.377731 151.380692,186.515411 
	C192.400665,228.676315 234.391083,269.893127 276.000671,311.480072 
	C277.249573,312.728271 278.637299,313.837524 279.270599,314.399506 
	C291.187408,302.477509 302.680511,290.979401 314.453247,279.201508 
	C313.655396,278.342438 312.469818,276.985504 311.200409,275.712158 
	C302.846497,267.332581 294.367340,259.073547 286.186676,250.528580 
	C284.236542,248.491608 282.787567,245.663971 281.959351,242.941055 
	C280.877258,239.383621 279.333130,237.086761 275.338928,236.869720 
	C270.578094,236.611008 267.736359,234.183228 267.645660,229.177307 
	C267.550659,223.933456 263.837372,222.552628 259.717773,222.214935 
	C255.825073,221.895828 254.132050,220.237839 253.822800,216.367218 
	C253.469772,211.948700 251.673920,208.497833 246.431000,208.307449 
	C241.957626,208.144989 239.409225,205.681458 239.255569,201.261841 
	C239.078995,196.182388 236.047287,194.393982 231.643036,193.970795 
	C227.300262,193.553543 225.263580,191.026962 225.058334,186.891281 
	C224.826065,182.210281 222.350815,180.172745 217.794250,179.928741 
	C213.369034,179.691772 210.766571,177.411530 210.806717,171.875900 
M435.038452,401.218872 
	C432.997253,402.008148 430.453522,402.274200 428.997437,403.672699 
	C420.351837,411.976501 412.027771,420.613922 403.445099,428.984894 
	C400.048584,432.297638 400.429474,435.519806 403.233521,438.588715 
	C407.048553,442.764191 411.052002,446.792877 415.234253,450.599213 
	C418.428467,453.506348 421.639282,453.973145 425.163849,450.303314 
	C433.464050,441.660980 442.033691,433.273071 450.632141,424.924103 
	C453.426819,422.210419 453.958801,419.088379 451.563751,416.541718 
	C446.586090,411.248932 441.050934,406.480499 435.038452,401.218872 
M376.016449,358.515900 
	C374.239899,356.823090 372.463348,355.130310 371.182434,353.909790 
	C365.285461,359.832672 359.707489,365.435120 354.741333,370.423065 
	C359.973907,375.655945 365.556274,381.238617 370.394135,386.076813 
	C375.614136,380.902557 381.213715,375.352112 387.509857,369.111145 
	C384.099976,365.978943 380.306396,362.494293 376.016449,358.515900 
M329.979645,319.522949 
	C330.991821,318.320312 332.003998,317.117676 332.437744,316.602295 
	C326.583130,310.783875 321.224030,305.457916 316.608246,300.870667 
	C311.346588,306.080688 305.751740,311.620605 300.808075,316.515747 
	C305.764038,321.566162 311.067047,326.970215 317.134186,333.153015 
	C321.099976,328.934723 325.293091,324.474548 329.979645,319.522949 
M343.319824,359.564362 
	C348.628571,353.914062 353.937317,348.263763 358.820984,343.065887 
	C353.693207,337.981934 348.250732,332.585999 343.595642,327.970673 
	C338.361267,333.139496 332.766693,338.664001 326.836151,344.520264 
	C331.866089,349.314636 337.251587,354.447937 343.319824,359.564362 
M401.022522,383.529327 
	C399.516541,383.049774 397.209045,381.695465 396.629242,382.226746 
	C391.176300,387.222961 386.018433,392.541290 381.119385,397.423828 
	C387.162445,403.309692 392.588318,408.594421 397.500244,413.378571 
	C402.723633,408.134705 408.293060,402.543457 414.439178,396.373230 
	C410.384583,392.495697 405.953400,388.257996 401.022522,383.529327 
M353.947601,259.559875 
	C356.575287,256.787750 359.422394,254.187439 361.766785,251.193466 
	C363.959320,248.393341 362.407532,245.851562 360.143585,243.809052 
	C357.907074,241.791290 355.617584,242.069046 353.532898,244.098526 
	C350.194885,247.348190 346.706726,250.479507 343.704834,254.019379 
	C342.634094,255.282059 342.037140,257.877899 342.598175,259.336639 
	C343.184204,260.860291 345.449402,262.720184 346.936615,262.682861 
	C349.119171,262.628082 351.262726,261.017700 353.947601,259.559875 
z"/>
<path fill="#000000" opacity="1.000000" stroke="none" 
	d="
M210.865829,172.275970 
	C210.766571,177.411530 213.369034,179.691772 217.794250,179.928741 
	C222.350815,180.172745 224.826065,182.210281 225.058334,186.891281 
	C225.263580,191.026962 227.300262,193.553543 231.643036,193.970795 
	C236.047287,194.393982 239.078995,196.182388 239.255569,201.261841 
	C239.409225,205.681458 241.957626,208.144989 246.431000,208.307449 
	C251.673920,208.497833 253.469772,211.948700 253.822800,216.367218 
	C254.132050,220.237839 255.825073,221.895828 259.717773,222.214935 
	C263.837372,222.552628 267.550659,223.933456 267.645660,229.177307 
	C267.736359,234.183228 270.578094,236.611008 275.338928,236.869720 
	C279.333130,237.086761 280.877258,239.383621 281.959351,242.941055 
	C282.787567,245.663971 284.236542,248.491608 286.186676,250.528580 
	C294.367340,259.073547 302.846497,267.332581 311.200409,275.712158 
	C312.469818,276.985504 313.655396,278.342438 314.453247,279.201508 
	C302.680511,290.979401 291.187408,302.477509 279.270599,314.399506 
	C278.637299,313.837524 277.249573,312.728271 276.000671,311.480072 
	C234.391083,269.893127 192.400665,228.676315 151.380692,186.515411 
	C133.733856,168.377731 117.980217,148.382553 101.596497,129.036469 
	C89.012177,114.176758 78.844727,97.664124 69.793877,80.460274 
	C68.917747,78.794937 68.449394,76.915085 67.355659,73.954262 
	C80.405670,83.090164 92.016731,91.894508 104.281837,99.666733 
	C131.179184,116.711235 158.165161,133.651062 185.697342,149.630127 
	C191.494278,152.994507 197.327255,154.249786 198.004715,162.231232 
	C198.119019,163.577911 201.743774,165.463425 203.860641,165.627335 
	C208.130417,165.957962 210.191269,167.898209 210.865829,172.275970 
M164.879883,168.737564 
	C170.077881,165.065430 170.630051,161.241592 166.421295,156.952194 
	C160.844940,151.268997 155.217636,145.633850 149.522751,140.069611 
	C145.924698,136.554092 142.512375,136.326828 139.458359,139.140060 
	C136.409317,141.948700 136.574966,145.948868 140.103790,149.558380 
	C145.553772,155.132996 150.937729,160.795700 156.727280,166.001083 
	C158.563293,167.651855 161.603912,167.962830 164.879883,168.737564 
z"/>
<path fill="#000000" opacity="1.000000" stroke="none" 
	d="
M435.391693,401.357697 
	C441.050934,406.480499 446.586090,411.248932 451.563751,416.541718 
	C453.958801,419.088379 453.426819,422.210419 450.632141,424.924103 
	C442.033691,433.273071 433.464050,441.660980 425.163849,450.303314 
	C421.639282,453.973145 418.428467,453.506348 415.234253,450.599213 
	C411.052002,446.792877 407.048553,442.764191 403.233521,438.588715 
	C400.429474,435.519806 400.048584,432.297638 403.445099,428.984894 
	C412.027771,420.613922 420.351837,411.976501 428.997437,403.672699 
	C430.453522,402.274200 432.997253,402.008148 435.391693,401.357697 
z"/>
<path fill="#000000" opacity="1.000000" stroke="none" 
	d="
M376.264648,358.762756 
	C380.306396,362.494293 384.099976,365.978943 387.509857,369.111145 
	C381.213715,375.352112 375.614136,380.902557 370.394135,386.076813 
	C365.556274,381.238617 359.973907,375.655945 354.741333,370.423065 
	C359.707489,365.435120 365.285461,359.832672 371.182434,353.909790 
	C372.463348,355.130310 374.239899,356.823090 376.264648,358.762756 
z"/>
<path fill="#000000" opacity="1.000000" stroke="none" 
	d="
M329.732941,319.768677 
	C325.293091,324.474548 321.099976,328.934723 317.134186,333.153015 
	C311.067047,326.970215 305.764038,321.566162 300.808075,316.515747 
	C305.751740,311.620605 311.346588,306.080688 316.608246,300.870667 
	C321.224030,305.457916 326.583130,310.783875 332.437744,316.602295 
	C332.003998,317.117676 330.991821,318.320312 329.732941,319.768677 
z"/>
<path fill="#000000" opacity="1.000000" stroke="none" 
	d="
M342.978455,359.572815 
	C337.251587,354.447937 331.866089,349.314636 326.836151,344.520264 
	C332.766693,338.664001 338.361267,333.139496 343.595642,327.970673 
	C348.250732,332.585999 353.693207,337.981934 358.820984,343.065887 
	C353.937317,348.263763 348.628571,353.914062 342.978455,359.572815 
z"/>
<path fill="#000000" opacity="1.000000" stroke="none" 
	d="
M401.272400,383.774780 
	C405.953400,388.257996 410.384583,392.495697 414.439178,396.373230 
	C408.293060,402.543457 402.723633,408.134705 397.500244,413.378571 
	C392.588318,408.594421 387.162445,403.309692 381.119385,397.423828 
	C386.018433,392.541290 391.176300,387.222961 396.629242,382.226746 
	C397.209045,381.695465 399.516541,383.049774 401.272400,383.774780 
z"/>
<path fill="#000000" opacity="1.000000" stroke="none" 
	d="
M353.685242,259.815002 
	C351.262726,261.017700 349.119171,262.628082 346.936615,262.682861 
	C345.449402,262.720184 343.184204,260.860291 342.598175,259.336639 
	C342.037140,257.877899 342.634094,255.282059 343.704834,254.019379 
	C346.706726,250.479507 350.194885,247.348190 353.532898,244.098526 
	C355.617584,242.069046 357.907074,241.791290 360.143585,243.809052 
	C362.407532,245.851562 363.959320,248.393341 361.766785,251.193466 
	C359.422394,254.187439 356.575287,256.787750 353.685242,259.815002 
z"/>
<path fill="#414042" opacity="1.000000" stroke="none" 
	d="
M164.486588,168.812241 
	C161.603912,167.962830 158.563293,167.651855 156.727280,166.001083 
	C150.937729,160.795700 145.553772,155.132996 140.103790,149.558380 
	C136.574966,145.948868 136.409317,141.948700 139.458359,139.140060 
	C142.512375,136.326828 145.924698,136.554092 149.522751,140.069611 
	C155.217636,145.633850 160.844940,151.268997 166.421295,156.952194 
	C170.630051,161.241592 170.077881,165.065430 164.486588,168.812241 
z"/>
</svg>